HIERARCHY
ROOT Hips
{
	OFFSET 0.000000 0.000000 0.000000
	CHANNELS 6 Xposition Yposition Zposition Xrotation Yrotation Zrotation
	JOINT LeftUpLeg
	{
		OFFSET 3.317160 0.000000 0.000000
		CHANNELS 6 Xposition Yposition Zposition Xrotation Yrotation Zrotation
		JOINT LeftLeg
		{
			OFFSET 0.000000 -16.621309 0.000000
			CHANNELS 6 Xposition Yposition Zposition Xrotation Yrotation Zrotation
			JOINT LeftFoot
			{
				OFFSET 0.000000 -16.132090 0.000000
				CHANNELS 6 Xposition Yposition Zposition Xrotation Yrotation Zrotation
				JOINT LeftToeBase
				{
					OFFSET 0.000000 -1.705429 6.364750
					CHANNELS 6 Xposition Yposition Zposition Xrotation Yrotation Zrotation
					End Site
					{
						OFFSET 0.000000 0.000000 2.952750
					}
				}
			}
		}
	}
	JOINT RightUpLeg
	{
		OFFSET -3.317160 0.000000 0.000000
		CHANNELS 6 Xposition Yposition Zposition Xrotation Yrotation Zrotation
		JOINT RightLeg
		{
			OFFSET 0.000000 -16.621309 0.000000
			CHANNELS 6 Xposition Yposition Zposition Xrotation Yrotation Zrotation
			JOINT RightFoot
			{
				OFFSET 0.000000 -16.132090 0.000000
				CHANNELS 6 Xposition Yposition Zposition Xrotation Yrotation Zrotation
				JOINT RightToeBase
				{
					OFFSET 0.000000 -1.705429 6.364750
					CHANNELS 6 Xposition Yposition Zposition Xrotation Yrotation Zrotation
					End Site
					{
						OFFSET 0.000000 0.000000 2.952750
					}
				}
			}
		}
	}
	JOINT Spine
	{
		OFFSET 0.000000 0.039370 0.000000
		CHANNELS 6 Xposition Yposition Zposition Xrotation Yrotation Zrotation
		JOINT Spine1
		{
			OFFSET 0.000000 9.216790 0.000000
			CHANNELS 6 Xposition Yposition Zposition Xrotation Yrotation Zrotation
			JOINT Neck
			{
				OFFSET 0.000000 8.819270 0.000000
				CHANNELS 3 Xrotation Yrotation Zrotation
				JOINT Head
				{
					OFFSET 0.000000 6.846361 0.000000
					CHANNELS 6 Xposition Yposition Zposition Xrotation Yrotation Zrotation
					End Site
					{
						OFFSET 0.000000 4.527550 0.000000
					}
				}
			}
			JOINT LeftShoulder
			{
				OFFSET 0.000000 8.819270 0.000000
				CHANNELS 3 Xrotation Yrotation Zrotation
				JOINT LeftArm
				{
					OFFSET 7.313730 -0.000031 0.000000
					CHANNELS 6 Xposition Yposition Zposition Xrotation Yrotation Zrotation
					JOINT LeftForeArm
					{
						OFFSET 10.822620 -0.000040 0.000000
						CHANNELS 6 Xposition Yposition Zposition Xrotation Yrotation Zrotation
						JOINT LeftHand
						{
							OFFSET 10.147810 -0.000040 0.000000
							CHANNELS 6 Xposition Yposition Zposition Xrotation Yrotation Zrotation
							JOINT LeftHandThumb
							{
								OFFSET 0.000000 0.000000 0.000000
								CHANNELS 6 Xposition Yposition Zposition Xrotation Yrotation Zrotation
								End Site
								{
									OFFSET 0.000000 0.000000 3.937000
								}
							}
							JOINT L_Wrist_End
							{
								OFFSET 3.937000 -0.000010 0.000000
								CHANNELS 6 Xposition Yposition Zposition Xrotation Yrotation Zrotation
								End Site
								{
									OFFSET 0.000000 0.100000 0.000000
								}
							}
						}
					}
				}
			}
			JOINT RightShoulder
			{
				OFFSET 0.000000 8.819270 0.000000
				CHANNELS 3 Xrotation Yrotation Zrotation
				JOINT RightArm
				{
					OFFSET -7.313730 -0.000031 0.000000
					CHANNELS 6 Xposition Yposition Zposition Xrotation Yrotation Zrotation
					JOINT RightForeArm
					{
						OFFSET -10.822620 -0.000040 0.000000
						CHANNELS 6 Xposition Yposition Zposition Xrotation Yrotation Zrotation
						JOINT RightHand
						{
							OFFSET -10.147810 -0.000040 0.000000
							CHANNELS 6 Xposition Yposition Zposition Xrotation Yrotation Zrotation
							JOINT RightHandThumb
							{
								OFFSET 0.000000 0.000000 0.000000
								CHANNELS 6 Xposition Yposition Zposition Xrotation Yrotation Zrotation
								End Site
								{
									OFFSET 0.000000 0.000000 3.937000
								}
							}
							JOINT R_Wrist_End
							{
								OFFSET -5.393688 -0.000019 0.000000
								CHANNELS 6 Xposition Yposition Zposition Xrotation Yrotation Zrotation
								End Site
								{
									OFFSET 0.000000 0.100000 0.000000
								}
							}
						}
					}
				}
			}
		}
	}
}
MOTION
Frames: 5
Frame Time: 0.041667
0.040862 34.176640 -0.054122 -6.275525 1.898097 -2.658757 3.317157 0.000009 0.000000 3.314342 10.220681 15.825193 -0.000005 -16.621304 -0.000001 8.212749 12.319662 -4.657941 0.000120 -16.132078 -0.000044 -3.444273 -3.990631 -9.131967 0.000001 -1.705429 6.364751 -0.000000 -0.000002 0.000001 -3.317158 -0.000001 0.000000 6.107261 -7.067283 0.210241 -0.000001 -16.621302 -0.000001 8.118633 -4.408172 5.263094 -0.000136 -16.132080 -0.000030 -7.313122 -0.038284 -2.271932 0.000001 -1.705432 6.364753 -0.277492 0.443132 -0.082040 0.000000 0.039372 -0.000000 0.000020 0.000001 -0.000001 0.213807 9.256474 -0.087974 11.375133 -4.525351 4.739985 -2.166264 0.830667 1.944747 -0.000000 6.846376 0.000004 -2.257913 0.789025 1.890820 0.415264 -8.997165 -12.059874 7.313724 -0.000008 0.000004 -6.795542 10.445594 -68.266183 10.822619 -0.000030 -0.000005 23.435699 -15.107463 4.397842 10.147812 -0.000038 -0.000002 -0.000004 -0.000000 0.000000 0.000002 -0.000000 0.000000 -0.000001 0.000002 -0.000002 3.937005 -0.000010 -0.000000 -0.000001 0.000004 -0.000002 0.400698 6.641528 15.109825 -7.313744 -0.000021 -0.000000 -5.332663 -2.704042 59.480047 -10.822626 -0.000016 0.000000 17.226611 16.647693 -1.903741 -10.147810 -0.000038 -0.000001 -0.000001 -0.000001 0.000001 -0.000002 -0.000003 0.000000 -0.000006 0.000001 -0.000001 -5.393692 -0.000019 -0.000000 -0.000005 -0.000001 -0.000000 
0.038737 34.177349 -0.044493 -6.266865 1.863687 -2.658271 3.317152 0.000020 0.000002 3.364488 10.308107 15.828519 -0.000004 -16.621317 -0.000001 8.107946 12.291212 -4.663870 0.000116 -16.132080 -0.000039 -3.411125 -3.996041 -9.127421 -0.000002 -1.705425 6.364749 -0.000000 -0.000000 -0.000000 -3.317158 0.000018 0.000001 6.141633 -7.049395 0.216624 0.000000 -16.621326 -0.000000 8.055000 -4.394382 5.264158 -0.000140 -16.132093 -0.000042 -7.295586 -0.037087 -2.277439 -0.000000 -1.705435 6.364747 -0.277631 0.443045 -0.081998 0.000000 0.039361 -0.000001 0.000013 -0.000000 -0.000001 0.213657 9.257075 -0.089000 11.332529 -4.508587 4.734363 -2.153916 0.831759 1.938686 -0.000001 6.846378 -0.000004 -2.246669 0.791123 1.882825 0.430258 -8.959450 -12.033871 7.313735 -0.000015 -0.000004 -6.807708 10.426801 -68.297787 10.822615 -0.000041 -0.000002 23.454308 -15.089942 4.392687 10.147808 -0.000040 -0.000000 0.000002 -0.000002 -0.000000 -0.000002 -0.000000 -0.000000 -0.000002 0.000004 0.000001 3.937001 -0.000010 -0.000000 -0.000001 0.000002 -0.000000 0.399379 6.628478 15.113950 -7.313735 -0.000016 0.000003 -5.358570 -2.762591 59.521923 -10.822615 -0.000023 0.000000 17.267324 16.558948 -1.975142 -10.147812 -0.000042 0.000000 -0.000004 -0.000000 -0.000001 -0.000002 0.000002 0.000001 -0.000001 -0.000002 0.000000 -5.393692 -0.000014 -0.000000 -0.000000 -0.000001 0.000001 
0.037093 34.177917 -0.034760 -6.261475 1.832146 -2.657994 3.317159 0.000010 -0.000000 3.413264 10.380784 15.830215 0.000000 -16.621313 -0.000001 8.018540 12.275168 -4.668032 0.000117 -16.132059 -0.000043 -3.385488 -4.003931 -9.125463 0.000000 -1.705429 6.364750 0.000000 -0.000002 0.000000 -3.317160 0.000008 -0.000000 6.175701 -7.030132 0.222066 -0.000000 -16.621304 -0.000001 7.999627 -4.383981 5.265193 -0.000143 -16.132105 -0.000040 -7.282358 -0.036264 -2.281442 0.000001 -1.705432 6.364753 -0.277583 0.443049 -0.082002 0.000000 0.039371 0.000002 -0.000007 -0.000000 0.000000 0.213487 9.257730 -0.089990 11.290598 -4.490180 4.728809 -2.148240 0.832945 1.932493 -0.000001 6.846354 -0.000003 -2.238844 0.793998 1.872213 0.432319 -8.946100 -12.037962 7.313717 -0.000029 0.000000 -6.818180 10.431091 -68.300000 10.822594 -0.000026 -0.000004 23.471255 -15.067918 4.392315 10.147814 -0.000042 0.000000 0.000002 0.000001 0.000000 0.000002 0.000000 0.000001 0.000004 0.000005 -0.000001 3.937005 -0.000011 0.000001 0.000003 0.000003 -0.000001 0.393819 6.618772 15.123673 -7.313735 -0.000021 0.000002 -5.388533 -2.843077 59.549803 -10.822607 -0.000010 0.000001 17.317028 16.484469 -2.019307 -10.147808 -0.000040 0.000001 0.000000 -0.000002 0.000001 -0.000002 -0.000003 -0.000000 -0.000001 -0.000001 0.000002 -5.393692 -0.000017 -0.000001 0.000001 0.000000 -0.000000 
0.035750 34.178608 -0.024555 -6.259771 1.802298 -2.657665 3.317151 0.000008 0.000000 3.474099 10.433531 15.828390 0.000001 -16.621300 0.000002 7.924701 12.273655 -4.672169 0.000125 -16.132046 -0.000045 -3.358542 -4.006137 -9.123904 0.000001 -1.705433 6.364749 0.000002 0.000002 0.000000 -3.317153 -0.000006 0.000000 6.217517 -7.009001 0.227218 -0.000000 -16.621321 -0.000003 7.938795 -4.377759 5.266618 -0.000137 -16.132078 -0.000036 -7.267396 -0.034741 -2.284790 0.000003 -1.705431 6.364752 -0.277633 0.443037 -0.082000 0.000001 0.039366 0.000001 -0.000003 0.000000 -0.000001 0.213063 9.258287 -0.090891 11.252403 -4.473596 4.721562 -2.131244 0.834659 1.924472 -0.000001 6.846352 0.000000 -2.224027 0.795741 1.867950 0.425912 -8.949262 -12.060852 7.313724 -0.000012 0.000001 -6.826963 10.452498 -68.282371 10.822605 -0.000039 -0.000000 23.491467 -15.039837 4.394045 10.147807 -0.000042 -0.000000 0.000001 -0.000000 -0.000002 0.000002 0.000002 0.000001 -0.000003 0.000003 0.000001 3.937004 -0.000010 0.000001 -0.000002 0.000004 -0.000000 0.407476 6.590214 15.088477 -7.313741 -0.000038 -0.000001 -5.433895 -2.921509 59.619212 -10.822610 -0.000020 0.000002 17.378387 16.419778 -2.041167 -10.147816 -0.000040 -0.000001 -0.000004 -0.000002 -0.000000 -0.000002 0.000000 0.000000 -0.000001 0.000003 0.000002 -5.393688 -0.000016 -0.000000 0.000001 0.000001 0.000001 
0.034866 34.179295 -0.013195 -6.259596 1.774950 -2.657097 3.317154 0.000013 0.000000 3.544579 10.462647 15.820736 -0.000004 -16.621313 -0.000001 7.829885 12.294640 -4.672164 0.000119 -16.132067 -0.000051 -3.332659 -4.007873 -9.125681 0.000000 -1.705429 6.364749 -0.000001 0.000004 0.000000 -3.317157 0.000008 -0.000000 6.264203 -6.986113 0.231660 -0.000001 -16.621305 0.000001 7.875652 -4.374513 5.268298 -0.000139 -16.132082 -0.000043 -7.253171 -0.034343 -2.286928 0.000001 -1.705438 6.364747 -0.277552 0.443069 -0.082020 -0.000000 0.039368 0.000001 0.000002 0.000000 -0.000000 0.212860 9.258995 -0.091962 11.207064 -4.453547 4.719459 -2.121479 0.836230 1.916319 -0.000000 6.846363 -0.000007 -2.209504 0.798357 1.860113 0.437751 -8.916259 -12.044152 7.313720 -0.000025 -0.000001 -6.842426 10.441849 -68.310074 10.822630 -0.000050 -0.000001 23.519061 -15.004915 4.397444 10.147810 -0.000043 0.000000 -0.000002 -0.000001 0.000000 0.000004 -0.000000 -0.000000 0.000004 0.000004 -0.000001 3.937004 -0.000009 -0.000000 0.000001 0.000003 0.000001 0.403304 6.582619 15.093118 -7.313737 -0.000043 -0.000002 -5.469102 -3.025488 59.639614 -10.822613 -0.000013 0.000000 17.443386 16.353730 -2.050975 -10.147806 -0.000041 0.000000 -0.000000 0.000001 -0.000001 0.000002 -0.000001 0.000001 -0.000000 0.000002 -0.000001 -5.393688 -0.000017 0.000001 -0.000000 0.000001 -0.000002 
